<svg width="21" height="20" viewBox="0 0 21 20" fill="none" xmlns="http://www.w3.org/2000/svg">
<path fill-rule="evenodd" clip-rule="evenodd" d="M10.6 0C5.08001 0 0.600006 4.48 0.600006 10C0.600006 15.52 5.08001 20 10.6 20C16.12 20 20.6 15.52 20.6 10C20.6 4.48 16.12 0 10.6 0ZM16.96 14.83C15.53 13.09 12.06 12.5 10.6 12.5C9.14001 12.5 5.67001 13.09 4.24001 14.83C3.22001 13.49 2.60001 11.82 2.60001 10C2.60001 5.59 6.19001 2 10.6 2C15.01 2 18.6 5.59 18.6 10C18.6 11.82 17.98 13.49 16.96 14.83ZM7.10001 7.5C7.10001 5.56 8.66001 4 10.6 4C12.54 4 14.1 5.56 14.1 7.5C14.1 9.44 12.54 11 10.6 11C8.66001 11 7.10001 9.44 7.10001 7.5Z" fill="#59413F"/>
</svg>
