<svg width="21" height="20" viewBox="0 0 21 20" fill="none" xmlns="http://www.w3.org/2000/svg">
<path fill-rule="evenodd" clip-rule="evenodd" d="M10.7 0C5.17995 0 0.699951 4.48 0.699951 10C0.699951 15.52 5.17995 20 10.7 20C16.22 20 20.7 15.52 20.7 10C20.7 4.48 16.22 0 10.7 0ZM17.06 14.83C15.63 13.09 12.16 12.5 10.7 12.5C9.23995 12.5 5.76995 13.09 4.33995 14.83C3.31995 13.49 2.69995 11.82 2.69995 10C2.69995 5.59 6.28995 2 10.7 2C15.11 2 18.7 5.59 18.7 10C18.7 11.82 18.08 13.49 17.06 14.83ZM7.19995 7.5C7.19995 5.56 8.75995 4 10.7 4C12.64 4 14.2 5.56 14.2 7.5C14.2 9.44 12.64 11 10.7 11C8.75995 11 7.19995 9.44 7.19995 7.5Z" fill="#9C1D21"/>
</svg>
