<svg width="40" height="40" viewBox="0 0 40 40" fill="none" xmlns="http://www.w3.org/2000/svg">
<g clip-path="url(#clip0_54819_30697)">
<rect y="0.00012207" width="40" height="40" rx="12" fill="#F4F4F4"/>
<path d="M25.2673 8.00012C23.7693 8.08862 22.0185 8.90762 20.9982 9.97412C20.0675 10.9416 19.3018 12.3786 19.6003 13.7751C21.237 13.8186 22.9281 12.9801 23.9081 11.8956C24.8247 10.8861 25.5184 9.45812 25.2673 8.00012Z" fill="black"/>
<path d="M31.1869 16.052C29.7487 14.5115 27.7274 13.6175 25.8185 13.6175C23.2985 13.6175 22.2326 14.648 20.4817 14.648C18.6764 14.648 17.3049 13.6205 15.1256 13.6205C12.9849 13.6205 10.7055 14.738 9.26022 16.649C7.22841 19.34 7.57612 24.3995 10.8688 28.709C12.0472 30.251 13.6206 31.985 15.6788 32C17.5104 32.015 18.0267 30.9965 20.5081 30.986C22.9894 30.974 23.4601 32.0135 25.2882 31.997C27.3481 31.9835 29.0076 30.062 30.1859 28.52C31.0306 27.4145 31.345 26.858 32 25.61C27.2357 24.0605 26.4718 18.2735 31.1869 16.052Z" fill="black"/>
</g>
<defs>
<clipPath id="clip0_54819_30697">
<rect y="0.00012207" width="40" height="40" rx="12" fill="white"/>
</clipPath>
</defs>
</svg>
