<svg width="18" height="18" viewBox="0 0 18 18" fill="none" xmlns="http://www.w3.org/2000/svg">
<path d="M11.6249 3.51221C12.4499 3.51221 13.1249 2.72197 13.1249 1.75611C13.1249 0.790241 12.4499 0 11.6249 0C10.7999 0 10.1249 0.790241 10.1249 1.75611C10.1249 2.72197 10.7999 3.51221 11.6249 3.51221Z" fill="#9C1D21"/>
<path d="M3.75 9.21936C1.68749 9.21936 0 11.195 0 13.6096C0 16.0242 1.68749 17.9998 3.75 17.9998C5.8125 17.9998 7.5 16.0242 7.5 13.6096C7.5 11.195 5.81247 9.21936 3.75 9.21936ZM3.75 16.6828C2.2875 16.6828 1.125 15.3218 1.125 13.6096C1.125 11.8974 2.2875 10.5364 3.75 10.5364C5.21249 10.5364 6.375 11.8974 6.375 13.6096C6.375 15.3218 5.21249 16.6828 3.75 16.6828Z" fill="#9C1D21"/>
<path d="M14.2113 8.29748V6.54137C13.0863 6.54137 12.1488 6.05846 11.4738 5.26822L10.0113 3.59995C9.78629 3.29262 9.41128 3.07312 8.99879 3.07312C8.5863 3.07312 8.21129 3.24874 7.94878 3.59995L5.88628 6.01459C5.62377 6.32192 5.43628 6.76091 5.43628 7.24387C5.43628 7.72682 5.62377 8.16581 5.88628 8.51702L8.24877 10.9755V15.3658H9.74878V9.87796L8.09879 7.94627L9.86128 5.83896L10.4238 6.4975C11.3613 7.63895 12.6738 8.29748 14.2113 8.29748Z" fill="#9C1D21"/>
<path d="M14.2499 9.21936C12.1874 9.21936 10.4999 11.195 10.4999 13.6096C10.4999 16.0242 12.1874 17.9998 14.2499 17.9998C16.3124 17.9998 17.9999 16.0242 17.9999 13.6096C17.9999 11.195 16.3124 9.21936 14.2499 9.21936ZM14.2499 16.6828C12.7874 16.6828 11.6249 15.3218 11.6249 13.6096C11.6249 11.8974 12.7874 10.5364 14.2499 10.5364C15.7124 10.5364 16.8749 11.8974 16.8749 13.6096C16.8749 15.3218 15.7124 16.6828 14.2499 16.6828Z" fill="#9C1D21"/>
</svg>
