<svg width="28" height="23" viewBox="0 0 28 23" fill="none" xmlns="http://www.w3.org/2000/svg">
<path d="M18.2131 4.29996C19.4419 4.29996 20.4472 3.33247 20.4472 2.14998C20.4472 0.967483 19.4419 0 18.2131 0C16.9844 0 15.9791 0.967483 15.9791 2.14998C15.9791 3.33247 16.9844 4.29996 18.2131 4.29996Z" fill="#ACADBC"/>
<path d="M6.48453 11.2871C3.41271 11.2871 0.899414 13.7058 0.899414 16.662C0.899414 19.6182 3.41271 22.037 6.48453 22.037C9.55635 22.037 12.0696 19.6182 12.0696 16.662C12.0696 13.7058 9.5563 11.2871 6.48453 11.2871ZM6.48453 20.4245C4.30634 20.4245 2.57494 18.7582 2.57494 16.662C2.57494 14.5658 4.30634 12.8996 6.48453 12.8996C8.66272 12.8996 10.3941 14.5658 10.3941 16.662C10.3941 18.7582 8.66272 20.4245 6.48453 20.4245Z" fill="#ACADBC"/>
<path d="M22.0652 10.1586V8.00859C20.3896 8.00859 18.9933 7.41737 17.988 6.44989L15.8098 4.40744C15.4747 4.03118 14.9162 3.76245 14.3018 3.76245C13.6875 3.76245 13.129 3.97746 12.738 4.40744L9.66618 7.36365C9.27521 7.73991 8.99597 8.27737 8.99597 8.86865C8.99597 9.45992 9.27521 9.99738 9.66618 10.4274L13.1848 13.4373V18.8122H15.4189V12.0935L12.9614 9.7286L15.5864 7.14864L16.4242 7.95488C17.8205 9.35234 19.7752 10.1586 22.0652 10.1586Z" fill="#ACADBC"/>
<path d="M22.1227 11.2871C19.0508 11.2871 16.5375 13.7058 16.5375 16.662C16.5375 19.6182 19.0508 22.037 22.1227 22.037C25.1945 22.037 27.7078 19.6182 27.7078 16.662C27.7078 13.7058 25.1945 11.2871 22.1227 11.2871ZM22.1227 20.4245C19.9445 20.4245 18.2131 18.7582 18.2131 16.662C18.2131 14.5658 19.9445 12.8996 22.1227 12.8996C24.3008 12.8996 26.0322 14.5658 26.0322 16.662C26.0322 18.7582 24.3008 20.4245 22.1227 20.4245Z" fill="#ACADBC"/>
</svg>
