<svg width="26" height="23" viewBox="0 0 26 23" fill="none" xmlns="http://www.w3.org/2000/svg">
<path d="M23.358 5.08549H22.9176V4.23791C22.9176 1.90113 20.9421 0 18.514 0H7.94524C5.51707 0 3.5416 1.90113 3.5416 4.23791V5.08549H3.10123C1.88671 5.08549 0.899414 6.03648 0.899414 7.20445V9.32341C0.899414 9.79127 1.2931 10.171 1.78014 10.171C2.26718 10.171 2.66087 9.79127 2.66087 9.32341V7.20445C2.66087 6.97052 2.85903 6.78066 3.10123 6.78066H3.5416V15.2565C3.5416 16.6355 4.24002 17.8509 5.30306 18.6248V20.342C5.30306 21.2769 6.09307 22.0371 7.06451 22.0371H8.82597C9.79741 22.0371 10.5874 21.2769 10.5874 20.342V19.4944H15.8718V20.342C15.8718 21.2769 16.6618 22.0371 17.6333 22.0371H19.3947C20.3661 22.0371 21.1562 21.2769 21.1562 20.342V18.6248C22.2192 17.8501 22.9176 16.6347 22.9176 15.2565V6.78066H23.358C23.6002 6.78066 23.7983 6.97052 23.7983 7.20445V9.32341C23.7983 9.79127 24.192 10.171 24.6791 10.171C25.1661 10.171 25.5598 9.79127 25.5598 9.32341V7.20445C25.5598 6.03648 24.5725 5.08549 23.358 5.08549ZM5.30306 5.08549H21.1562V11.3279C20.3591 11.6754 19.4872 11.8662 18.6117 11.8662H7.84748C6.97292 11.8662 6.10011 11.6754 5.30306 11.3279V5.08549ZM7.94524 1.69517H18.514C19.6607 1.69517 20.6295 2.40629 20.9941 3.39033H5.46511C5.82973 2.40629 6.79853 1.69517 7.94524 1.69517ZM8.82597 20.342H7.06451V19.4088C7.34899 19.4647 7.64403 19.4944 7.94524 19.4944H8.82597V20.342ZM19.3947 20.342H17.6333V19.4944H18.514C18.8152 19.4944 19.1102 19.4647 19.3947 19.4088V20.342ZM18.514 17.7992H7.94524C6.48852 17.7992 5.30306 16.6584 5.30306 15.2565V13.1494C6.12213 13.4155 6.98437 13.5613 7.84748 13.5613H18.6126C19.4757 13.5613 20.338 13.4155 21.157 13.1494V15.2565C21.157 16.6584 19.9707 17.7992 18.514 17.7992Z" fill="#ACADBC"/>
<path d="M7.94475 16.1041C8.43117 16.1041 8.82548 15.7246 8.82548 15.2565C8.82548 14.7884 8.43117 14.4089 7.94475 14.4089C7.45834 14.4089 7.06403 14.7884 7.06403 15.2565C7.06403 15.7246 7.45834 16.1041 7.94475 16.1041Z" fill="#ACADBC"/>
<path d="M18.5142 16.1041C19.0006 16.1041 19.3949 15.7246 19.3949 15.2565C19.3949 14.7884 19.0006 14.4089 18.5142 14.4089C18.0278 14.4089 17.6335 14.7884 17.6335 15.2565C17.6335 15.7246 18.0278 16.1041 18.5142 16.1041Z" fill="#ACADBC"/>
</svg>
