<svg width="26" height="23" viewBox="0 0 26 23" fill="none" xmlns="http://www.w3.org/2000/svg">
<path d="M23.1531 5.30769H22.7174V4.42308C22.7174 1.98419 20.763 0 18.3606 0H7.90414C5.50177 0 3.54728 1.98419 3.54728 4.42308V5.30769H3.11159C1.90997 5.30769 0.933167 6.30023 0.933167 7.51923V9.73077C0.933167 10.2191 1.32267 10.6154 1.80454 10.6154C2.28641 10.6154 2.67591 10.2191 2.67591 9.73077V7.51923C2.67591 7.27508 2.87197 7.07692 3.11159 7.07692H3.54728V15.9231C3.54728 17.3623 4.23828 18.6309 5.29002 19.4385V21.2308C5.29002 22.2065 6.07164 23 7.03277 23H8.77551C9.73663 23 10.5183 22.2065 10.5183 21.2308V20.3462H15.7465V21.2308C15.7465 22.2065 16.5281 23 17.4892 23H19.232C20.1931 23 20.9747 22.2065 20.9747 21.2308V19.4385C22.0265 18.63 22.7174 17.3615 22.7174 15.9231V7.07692H23.1531C23.3928 7.07692 23.5888 7.27508 23.5888 7.51923V9.73077C23.5888 10.2191 23.9783 10.6154 24.4602 10.6154C24.9421 10.6154 25.3316 10.2191 25.3316 9.73077V7.51923C25.3316 6.30023 24.3548 5.30769 23.1531 5.30769ZM5.29002 5.30769H20.9747V11.8229C20.1861 12.1856 19.3235 12.3846 18.4573 12.3846H7.80741C6.94214 12.3846 6.07861 12.1856 5.29002 11.8229V5.30769ZM7.90414 1.76923H18.3606C19.4951 1.76923 20.4536 2.51142 20.8144 3.53846H5.45036C5.8111 2.51142 6.76961 1.76923 7.90414 1.76923ZM8.77551 21.2308H7.03277V20.2568C7.31422 20.3152 7.60613 20.3462 7.90414 20.3462H8.77551V21.2308ZM19.232 21.2308H17.4892V20.3462H18.3606C18.6586 20.3462 18.9505 20.3152 19.232 20.2568V21.2308ZM18.3606 18.5769H7.90414C6.46289 18.5769 5.29002 17.3862 5.29002 15.9231V13.7239C6.1004 14.0017 6.95347 14.1538 7.80741 14.1538H18.4582C19.3121 14.1538 20.1652 14.0017 20.9756 13.7239V15.9231C20.9756 17.3862 19.8018 18.5769 18.3606 18.5769Z" fill="#F4F4F4"/>
<path d="M7.90366 16.8078C8.3849 16.8078 8.77503 16.4117 8.77503 15.9232C8.77503 15.4346 8.3849 15.0386 7.90366 15.0386C7.42241 15.0386 7.03229 15.4346 7.03229 15.9232C7.03229 16.4117 7.42241 16.8078 7.90366 16.8078Z" fill="#F4F4F4"/>
<path d="M18.3608 16.8078C18.8421 16.8078 19.2322 16.4117 19.2322 15.9232C19.2322 15.4346 18.8421 15.0386 18.3608 15.0386C17.8796 15.0386 17.4894 15.4346 17.4894 15.9232C17.4894 16.4117 17.8796 16.8078 18.3608 16.8078Z" fill="#F4F4F4"/>
</svg>
