<svg width="19" height="18" viewBox="0 0 19 18" fill="none" xmlns="http://www.w3.org/2000/svg">
<path d="M16.8929 4.15385H16.5714V3.46154C16.5714 1.55285 15.1295 0 13.3571 0H5.64286C3.8705 0 2.42857 1.55285 2.42857 3.46154V4.15385H2.10714C1.22064 4.15385 0.5 4.93062 0.5 5.88462V7.61539C0.5 7.99754 0.787357 8.30769 1.14286 8.30769C1.49836 8.30769 1.78571 7.99754 1.78571 7.61539V5.88462C1.78571 5.69354 1.93036 5.53846 2.10714 5.53846H2.42857V12.4615C2.42857 13.5879 2.93836 14.5807 3.71429 15.2128V16.6154C3.71429 17.379 4.29093 18 5 18H6.28571C6.99479 18 7.57143 17.379 7.57143 16.6154V15.9231H11.4286V16.6154C11.4286 17.379 12.0052 18 12.7143 18H14C14.7091 18 15.2857 17.379 15.2857 16.6154V15.2128C16.0616 14.58 16.5714 13.5872 16.5714 12.4615V5.53846H16.8929C17.0696 5.53846 17.2143 5.69354 17.2143 5.88462V7.61539C17.2143 7.99754 17.5016 8.30769 17.8571 8.30769C18.2126 8.30769 18.5 7.99754 18.5 7.61539V5.88462C18.5 4.93062 17.7794 4.15385 16.8929 4.15385ZM3.71429 4.15385H15.2857V9.25269C14.7039 9.53654 14.0675 9.69231 13.4285 9.69231H5.5715C4.93314 9.69231 4.29607 9.53654 3.71429 9.25269V4.15385ZM5.64286 1.38462H13.3571C14.1941 1.38462 14.9013 1.96546 15.1674 2.76923H3.83257C4.09871 1.96546 4.80586 1.38462 5.64286 1.38462ZM6.28571 16.6154H5V15.8532C5.20764 15.8988 5.423 15.9231 5.64286 15.9231H6.28571V16.6154ZM14 16.6154H12.7143V15.9231H13.3571C13.577 15.9231 13.7924 15.8988 14 15.8532V16.6154ZM13.3571 14.5385H5.64286C4.57957 14.5385 3.71429 13.6066 3.71429 12.4615V10.7405C4.31214 10.9578 4.9415 11.0769 5.5715 11.0769H13.4291C14.0591 11.0769 14.6885 10.9578 15.2864 10.7405V12.4615C15.2864 13.6066 14.4204 14.5385 13.3571 14.5385Z" fill="#9C1D21"/>
<path d="M5.64249 13.1539C5.99753 13.1539 6.28535 12.8439 6.28535 12.4616C6.28535 12.0792 5.99753 11.7693 5.64249 11.7693C5.28745 11.7693 4.99963 12.0792 4.99963 12.4616C4.99963 12.8439 5.28745 13.1539 5.64249 13.1539Z" fill="#9C1D21"/>
<path d="M13.3573 13.1539C13.7124 13.1539 14.0002 12.8439 14.0002 12.4616C14.0002 12.0792 13.7124 11.7693 13.3573 11.7693C13.0023 11.7693 12.7145 12.0792 12.7145 12.4616C12.7145 12.8439 13.0023 13.1539 13.3573 13.1539Z" fill="#9C1D21"/>
</svg>
