<svg width="40" height="40" viewBox="0 0 40 40" fill="none" xmlns="http://www.w3.org/2000/svg">
<g clip-path="url(#clip0_54819_30696)">
<rect y="0.00012207" width="40" height="40" rx="12" fill="#F4F4F4"/>
<path fill-rule="evenodd" clip-rule="evenodd" d="M20 8.00012C22.235 8.02563 24.2541 8.57493 26.0574 9.64803C27.8391 10.6997 29.3212 12.1909 30.362 13.979C31.4286 15.7931 31.9746 17.8245 32 20.0731C31.9367 23.1498 30.9663 25.7776 29.0888 27.9565C27.2113 30.1354 24.8067 31.4834 22.3175 32.0001V23.3741H24.6708L25.203 19.9842H21.6395V17.764C21.6197 17.3037 21.7653 16.8515 22.0499 16.4892C22.3349 16.126 22.8367 15.935 23.5554 15.9164H25.7073V12.947C25.6764 12.9371 25.3835 12.8978 24.8284 12.8291C24.1989 12.7555 23.5658 12.7162 22.932 12.7113C21.4975 12.7179 20.363 13.1226 19.5286 13.9252C18.6941 14.7277 18.2678 15.8886 18.2497 17.4081V19.9842H15.5378V23.3741H18.2497V32.0001C15.1933 31.4834 12.7887 30.1354 10.9112 27.9565C9.03371 25.7776 8.06335 23.1498 8 20.0731C8.02535 17.8244 8.57133 15.793 9.63795 13.979C10.6788 12.1909 12.1609 10.6997 13.9426 9.64803C15.7458 8.57514 17.7649 8.02583 20 8.00012Z" fill="black"/>
</g>
<defs>
<clipPath id="clip0_54819_30696">
<rect y="0.00012207" width="40" height="40" rx="12" fill="white"/>
</clipPath>
</defs>
</svg>
