<svg width="40" height="40" viewBox="0 0 40 40" fill="none" xmlns="http://www.w3.org/2000/svg">
<g clip-path="url(#clip0_54819_30695)">
<rect y="0.00012207" width="40" height="40" rx="12" fill="#F4F4F4"/>
<path d="M32 20.0003C32 19.2463 31.9292 18.4917 31.7892 17.759C31.726 17.4274 31.4355 17.1877 31.0983 17.1877H20.046C19.6573 17.1877 19.3428 17.5022 19.3428 17.8908V22.1096C19.3428 22.4982 19.6573 22.8127 20.046 22.8127H25.7167C25.3634 23.5279 24.8765 24.1485 24.3047 24.6706L28.279 28.6447C30.5658 26.4662 32 23.4005 32 20.0003Z" fill="black"/>
<path d="M20.0023 13.6252C21.3818 13.6252 22.6941 14.0632 23.7969 14.8927C24.0757 15.1021 24.4692 15.0767 24.7164 14.8275L27.7173 11.8268C27.8567 11.6874 27.9315 11.4958 27.9226 11.2987C27.9137 11.1017 27.823 10.9176 27.6719 10.7906C25.5247 8.99097 22.8005 8.00012 20.0023 8.00012C15.884 8.00012 12.2458 10.0933 10.0951 13.2713L14.2227 17.3986C15.2074 15.1807 17.423 13.6252 20.0023 13.6252Z" fill="black"/>
<path d="M20.0023 32.0001C22.6867 32.0001 25.1586 31.1001 27.156 29.6007L23.1071 25.5521C22.1816 26.0731 21.1238 26.3751 20.0023 26.3751C17.423 26.3751 15.2074 24.8196 14.2227 22.6016L10.0951 26.7289C12.2458 29.907 15.884 32.0001 20.0023 32.0001Z" fill="black"/>
<path d="M13.7278 21.0128C13.6739 20.6809 13.6254 20.3468 13.6254 20C13.6254 19.6533 13.6739 19.3191 13.7278 18.9873L9.31541 14.5752C8.4806 16.2055 8 18.0461 8 20C8 21.954 8.4806 23.7945 9.31546 25.4248L13.7278 21.0128Z" fill="black"/>
</g>
<defs>
<clipPath id="clip0_54819_30695">
<rect y="0.00012207" width="40" height="40" rx="12" fill="white"/>
</clipPath>
</defs>
</svg>
