<svg width="34" height="35" viewBox="0 0 34 35" fill="none" xmlns="http://www.w3.org/2000/svg">
<g opacity="0.25">
<path d="M16.6825 9.20864L8.95898 1.62061H29.0408C29.8755 1.62061 30.6614 1.81394 31.3486 2.19936L24.2136 9.20864C22.134 11.2516 18.7621 11.2516 16.6818 9.20864H16.6825Z" fill="#1D1029"/>
<path d="M3.40997 29.6457L2.72275 28.9221C0.80791 27.041 0.80791 23.9539 2.72275 22.0243L6.74925 18.0687C8.71281 16.1876 8.66409 13.1005 6.74925 11.1709L5.47226 9.91642C3.6555 8.17953 3.60613 5.71967 4.73568 3.93555L13.3983 12.4456C15.4747 14.4854 15.4747 17.7929 13.3983 19.8327L3.40997 29.6457Z" fill="#1D1029"/>
<path d="M34 26.2217L27.5035 19.8396C25.4239 17.7967 25.4239 14.4841 27.5035 12.4412L33.6872 6.36646C33.8379 6.42754 33.8487 6.43258 34 6.49367V26.2223V26.2217Z" fill="#1D1029"/>
<path d="M7.43647 33.5529L6.69989 32.8778L16.6882 23.0648C18.7646 21.025 22.1315 21.025 24.2079 23.0648L31.5941 30.3209C29.7774 31.4299 27.2734 31.3342 25.506 29.5973C24.5239 28.681 23.2963 28.1986 22.0199 28.1986C20.7436 28.1986 19.4666 28.681 18.4851 29.5973L14.4586 33.5529C12.5438 35.4825 9.40131 35.4825 7.43711 33.5529H7.43647Z" fill="#1D1029"/>
</g>
<path d="M22.9187 7.58493L30.0509 0.578766C29.3637 0.193083 28.5779 0 27.7439 0H7.66931L15.3901 7.58493C17.4689 9.62706 20.8399 9.62706 22.9187 7.58493Z" fill="url(#paint0_linear_54820_56497)"/>
<path d="M12.1078 10.8215L3.44758 2.3147C2.31899 4.0989 2.36776 6.55769 4.18404 8.2935L5.46041 9.54733C7.37471 11.4757 7.42348 14.5617 5.46041 16.4422L1.43573 20.3958C-0.478577 22.3242 -0.478577 25.4102 1.43573 27.2907L2.12293 28.0136L12.1078 18.2051C14.1837 16.1659 14.1837 12.8602 12.1078 10.821V10.8215Z" fill="url(#paint1_linear_54820_56497)"/>
<path d="M32.3888 4.74292L26.207 10.8156C24.1281 12.8577 24.1281 16.1692 26.207 18.2113L32.7011 24.5908V4.8697C32.5504 4.80824 32.5395 4.80389 32.3888 4.74243V4.74292Z" fill="url(#paint2_linear_54820_56497)"/>
<path d="M15.396 21.4357L5.41113 31.2448L6.14759 31.9193C8.11067 33.8482 11.2521 33.8482 13.1664 31.9193L17.1911 27.9657C18.1724 27.0497 19.4487 26.5677 20.7251 26.5677C22.0015 26.5677 23.2286 27.0497 24.2099 27.9657C25.9769 29.7015 28.4799 29.7978 30.2961 28.6892L22.9123 21.4357C20.8364 19.3965 17.4714 19.397 15.3955 21.4357H15.396Z" fill="url(#paint3_linear_54820_56497)"/>
<defs>
<linearGradient id="paint0_linear_54820_56497" x1="7.66931" y1="4.55851" x2="30.0509" y2="4.55851" gradientUnits="userSpaceOnUse">
<stop stop-color="#EC1B69"/>
<stop offset="1" stop-color="#F05B57"/>
</linearGradient>
<linearGradient id="paint1_linear_54820_56497" x1="-0.000246308" y1="15.1642" x2="13.6644" y2="15.1642" gradientUnits="userSpaceOnUse">
<stop stop-color="#EC1B69"/>
<stop offset="1" stop-color="#F05B57"/>
</linearGradient>
<linearGradient id="paint2_linear_54820_56497" x1="24.6478" y1="14.6666" x2="32.7016" y2="14.6666" gradientUnits="userSpaceOnUse">
<stop stop-color="#EC1B69"/>
<stop offset="1" stop-color="#F05B57"/>
</linearGradient>
<linearGradient id="paint3_linear_54820_56497" x1="5.41113" y1="26.6364" x2="30.2961" y2="26.6364" gradientUnits="userSpaceOnUse">
<stop stop-color="#EC1B69"/>
<stop offset="1" stop-color="#F05B57"/>
</linearGradient>
</defs>
</svg>
