<svg width="24" height="24" viewBox="0 0 24 24" fill="none" xmlns="http://www.w3.org/2000/svg">
<path d="M18.1072 17.1564C18.6989 17.1564 19.1786 16.7366 19.1786 16.2189C19.1786 15.7011 18.6989 15.2814 18.1072 15.2814C17.5155 15.2814 17.0358 15.7011 17.0358 16.2189C17.0358 16.7366 17.5155 17.1564 18.1072 17.1564Z" fill="black"/>
<path d="M22.9286 16.9689C23.5203 16.9689 24 16.5492 24 16.0314V12.5626C24 10.4949 22.0774 8.81262 19.7143 8.81262H18.4266V5.50634C18.4266 2.4702 15.5427 0.00012207 11.998 0.00012207C8.4533 0.00012207 5.56945 2.4702 5.56945 5.50634V8.81262H4.28571C1.92257 8.81262 0 10.4949 0 12.5626V20.2501C0 22.3179 1.92257 24.0001 4.28571 24.0001H19.7143C22.0774 24.0001 24 22.3179 24 20.2501C24 19.7323 23.5203 19.3126 22.9286 19.3126C22.3368 19.3126 21.8571 19.7323 21.8571 20.2501C21.8571 21.284 20.8959 22.1251 19.7143 22.1251H4.28571C3.10414 22.1251 2.14286 21.284 2.14286 20.2501V12.5626C2.14286 11.5287 3.10414 10.6876 4.28571 10.6876H19.7143C20.8959 10.6876 21.8571 11.5287 21.8571 12.5626V16.0314C21.8571 16.5492 22.3368 16.9689 22.9286 16.9689ZM16.2837 8.81262H7.7123V5.50634C7.7123 3.50408 9.63488 1.87512 11.998 1.87512C14.3612 1.87512 16.2837 3.50408 16.2837 5.50634V8.81262Z" fill="black"/>
<path d="M10.0178 17.1564C10.6096 17.1564 11.0893 16.7366 11.0893 16.2189C11.0893 15.7011 10.6096 15.2814 10.0178 15.2814C9.42611 15.2814 8.94641 15.7011 8.94641 16.2189C8.94641 16.7366 9.42611 17.1564 10.0178 17.1564Z" fill="black"/>
<path d="M6.00002 17.1564C6.59175 17.1564 7.07145 16.7366 7.07145 16.2189C7.07145 15.7011 6.59175 15.2814 6.00002 15.2814C5.40828 15.2814 4.92859 15.7011 4.92859 16.2189C4.92859 16.7366 5.40828 17.1564 6.00002 17.1564Z" fill="black"/>
<path d="M14.0357 17.1564C14.6274 17.1564 15.1071 16.7366 15.1071 16.2189C15.1071 15.7011 14.6274 15.2814 14.0357 15.2814C13.4439 15.2814 12.9642 15.7011 12.9642 16.2189C12.9642 16.7366 13.4439 17.1564 14.0357 17.1564Z" fill="black"/>
</svg>
