<svg width="20" height="22" viewBox="0 0 20 22" fill="none" xmlns="http://www.w3.org/2000/svg">
<path fill-rule="evenodd" clip-rule="evenodd" d="M13.31 20.0298C13.21 20.7098 12.59 21.2498 11.85 21.2498H8.14999C7.40999 21.2498 6.78999 20.7098 6.69999 19.9798L6.42999 18.0898C6.15999 17.9498 5.89999 17.7998 5.63999 17.6298L3.83999 18.3498C3.13999 18.6098 2.36999 18.3198 2.02999 17.6998L0.19999 14.5298C-0.15001 13.8698 -9.83477e-06 13.0898 0.55999 12.6498L2.08999 11.4598C2.07999 11.3098 2.06999 11.1598 2.06999 10.9998C2.06999 10.8498 2.07999 10.6898 2.08999 10.5398L0.56999 9.34977C-0.0200098 8.89977 -0.17001 8.08977 0.19999 7.46977L2.04999 4.27977C2.38999 3.65977 3.15999 3.37977 3.83999 3.64977L5.64999 4.37977C5.90999 4.20977 6.16999 4.05977 6.42999 3.91977L6.69999 2.00977C6.78999 1.30977 7.40999 0.759766 8.13999 0.759766H11.84C12.58 0.759766 13.2 1.29977 13.29 2.02977L13.56 3.91977C13.83 4.05977 14.09 4.20977 14.35 4.37977L16.15 3.65977C16.86 3.39977 17.63 3.68977 17.97 4.30977L19.81 7.48977C20.17 8.14977 20.01 8.92977 19.45 9.36977L17.93 10.5598C17.94 10.7098 17.95 10.8598 17.95 11.0198C17.95 11.1798 17.94 11.3298 17.93 11.4798L19.45 12.6698C20.01 13.1198 20.17 13.8998 19.82 14.5298L17.96 17.7498C17.62 18.3698 16.85 18.6498 16.16 18.3798L14.36 17.6598C14.1 17.8298 13.84 17.9798 13.58 18.1198L13.31 20.0298ZM8.61999 19.2498H11.38L11.75 16.6998L12.28 16.4798C12.72 16.2998 13.16 16.0398 13.62 15.6998L14.07 15.3598L16.45 16.3198L17.83 13.9198L15.8 12.3398L15.87 11.7798L15.8731 11.7528C15.902 11.5025 15.93 11.2604 15.93 10.9998C15.93 10.7298 15.9 10.4698 15.87 10.2198L15.8 9.65977L17.83 8.07977L16.44 5.67977L14.05 6.63977L13.6 6.28977C13.18 5.96977 12.73 5.70977 12.27 5.51977L11.75 5.29977L11.38 2.74977H8.61999L8.24999 5.29977L7.71999 5.50977C7.27999 5.69977 6.83999 5.94977 6.37999 6.29977L5.92999 6.62977L3.54999 5.67977L2.15999 8.06977L4.18999 9.64977L4.11999 10.2098C4.08999 10.4698 4.05999 10.7398 4.05999 10.9998C4.05999 11.2598 4.07999 11.5298 4.11999 11.7798L4.18999 12.3398L2.15999 13.9198L3.53999 16.3198L5.92999 15.3598L6.37999 15.7098C6.80999 16.0398 7.23999 16.2898 7.70999 16.4798L8.23999 16.6998L8.61999 19.2498ZM13.5 10.9998C13.5 12.9328 11.933 14.4998 9.99999 14.4998C8.06699 14.4998 6.49999 12.9328 6.49999 10.9998C6.49999 9.06677 8.06699 7.49977 9.99999 7.49977C11.933 7.49977 13.5 9.06677 13.5 10.9998Z" fill="#9C1D21"/>
</svg>
