<svg width="29" height="22" viewBox="0 0 29 22" fill="none" xmlns="http://www.w3.org/2000/svg">
<path d="M26.3315 0.000758734H12.0525C11.6054 -0.0107783 11.1647 0.109474 10.7854 0.34654C10.4061 0.583607 10.1049 0.927014 9.91932 1.334C9.83103 1.50149 9.69869 1.64169 9.53657 1.7395C9.37445 1.8373 9.18871 1.88899 8.99938 1.88899C8.81005 1.88899 8.6243 1.8373 8.46219 1.7395C8.30007 1.64169 8.16773 1.50149 8.07944 1.334C7.89387 0.927014 7.59268 0.583607 7.21337 0.34654C6.83407 0.109474 6.3934 -0.0107783 5.94626 0.000758734H2.33317C1.71546 0.00425863 1.12404 0.251198 0.687238 0.687996C0.250439 1.12479 0.00349989 1.71621 0 2.33393V19.6661C0.00349989 20.2838 0.250439 20.8752 0.687238 21.312C1.12404 21.7488 1.71546 21.9957 2.33317 21.9992H5.94626C6.3934 22.0108 6.83407 21.8905 7.21337 21.6535C7.59268 21.4164 7.89387 21.073 8.07944 20.666C8.16773 20.4985 8.30007 20.3583 8.46219 20.2605C8.6243 20.1627 8.81005 20.111 8.99938 20.111C9.18871 20.111 9.37445 20.1627 9.53657 20.2605C9.69869 20.3583 9.83103 20.4985 9.91932 20.666C10.1049 21.073 10.4061 21.4164 10.7854 21.6535C11.1647 21.8905 11.6054 22.0108 12.0525 21.9992H26.3315C26.9492 21.9957 27.5407 21.7488 27.9775 21.312C28.4143 20.8752 28.6612 20.2838 28.6647 19.6661V2.33393C28.6612 1.71621 28.4143 1.12479 27.9775 0.687996C27.5407 0.251198 26.9492 0.00425863 26.3315 0.000758734Z" fill="#ACADBC"/>
<path d="M8.99883 7.42698C8.73363 7.42698 8.4793 7.32163 8.29177 7.13411C8.10425 6.94659 7.9989 6.69225 7.9989 6.42705V4.90716C7.9989 4.64196 8.10425 4.38762 8.29177 4.2001C8.4793 4.01258 8.73363 3.90723 8.99883 3.90723C9.26403 3.90723 9.51837 4.01258 9.70589 4.2001C9.89341 4.38762 9.99876 4.64196 9.99876 4.90716V6.42705C9.99876 6.69225 9.89341 6.94659 9.70589 7.13411C9.51837 7.32163 9.26403 7.42698 8.99883 7.42698Z" fill="white"/>
<path d="M8.99883 18.093C8.73363 18.093 8.4793 17.9876 8.29177 17.8001C8.10425 17.6126 7.9989 17.3583 7.9989 17.0931V15.5732C7.9989 15.308 8.10425 15.0536 8.29177 14.8661C8.4793 14.6786 8.73363 14.5732 8.99883 14.5732C9.26403 14.5732 9.51837 14.6786 9.70589 14.8661C9.89341 15.0536 9.99876 15.308 9.99876 15.5732V17.0931C9.99876 17.3583 9.89341 17.6126 9.70589 17.8001C9.51837 17.9876 9.26403 18.093 8.99883 18.093Z" fill="white"/>
<path d="M8.99883 12.76C8.73363 12.76 8.4793 12.6546 8.29177 12.4671C8.10425 12.2796 7.9989 12.0253 7.9989 11.7601V10.2402C7.9989 9.97497 8.10425 9.72063 8.29177 9.53311C8.4793 9.34558 8.73363 9.24023 8.99883 9.24023C9.26403 9.24023 9.51837 9.34558 9.70589 9.53311C9.89341 9.72063 9.99876 9.97497 9.99876 10.2402V11.7601C9.99876 12.0253 9.89341 12.2796 9.70589 12.4671C9.51837 12.6546 9.26403 12.76 8.99883 12.76Z" fill="white"/>
</svg>
