<svg width="25" height="24" viewBox="0 0 25 24" fill="none" xmlns="http://www.w3.org/2000/svg">
<path d="M22.9465 0.00082771H10.9912C10.6168 -0.0117581 10.2479 0.119426 9.93027 0.378044C9.61269 0.636662 9.36051 1.01129 9.20514 1.45527C9.13122 1.63799 9.02042 1.79094 8.88468 1.89763C8.74895 2.00433 8.59343 2.06071 8.43491 2.06071C8.27639 2.06071 8.12087 2.00433 7.98514 1.89763C7.8494 1.79094 7.7386 1.63799 7.66468 1.45527C7.5093 1.01129 7.25713 0.636662 6.93955 0.378044C6.62196 0.119426 6.25301 -0.0117581 5.87863 0.00082771H2.85351C2.33632 0.00464578 1.84114 0.274034 1.47543 0.750542C1.10971 1.22705 0.902955 1.87223 0.900024 2.54611V21.4539C0.902955 22.1278 1.10971 22.773 1.47543 23.2495C1.84114 23.726 2.33632 23.9954 2.85351 23.9992H5.87863C6.25301 24.0118 6.62196 23.8806 6.93955 23.622C7.25713 23.3633 7.5093 22.9887 7.66468 22.5447C7.7386 22.362 7.8494 22.2091 7.98514 22.1024C8.12087 21.9957 8.27639 21.9393 8.43491 21.9393C8.59343 21.9393 8.74895 21.9957 8.88468 22.1024C9.02042 22.2091 9.13122 22.362 9.20514 22.5447C9.36051 22.9887 9.61269 23.3633 9.93027 23.622C10.2479 23.8806 10.6168 24.0118 10.9912 23.9992H22.9465C23.4637 23.9954 23.9589 23.726 24.3246 23.2495C24.6903 22.773 24.8971 22.1278 24.9 21.4539V2.54611C24.8971 1.87223 24.6903 1.22705 24.3246 0.750542C23.9589 0.274034 23.4637 0.00464578 22.9465 0.00082771Z" fill="#9C1D21"/>
</svg>
