<svg width="25" height="24" viewBox="0 0 25 24" fill="none" xmlns="http://www.w3.org/2000/svg">
<path d="M22.2465 0.00082771H10.2912C9.91679 -0.0117581 9.54784 0.119426 9.23026 0.378044C8.91268 0.636662 8.6605 1.01129 8.50513 1.45527C8.43121 1.63799 8.3204 1.79094 8.18467 1.89763C8.04893 2.00433 7.89342 2.06071 7.7349 2.06071C7.57637 2.06071 7.42086 2.00433 7.28512 1.89763C7.14939 1.79094 7.03859 1.63799 6.96466 1.45527C6.80929 1.01129 6.55711 0.636662 6.23953 0.378044C5.92195 0.119426 5.553 -0.0117581 5.17862 0.00082771H2.1535C1.63631 0.00464578 1.14113 0.274034 0.775414 0.750542C0.409697 1.22705 0.202943 1.87223 0.200012 2.54611V21.4539C0.202943 22.1278 0.409697 22.773 0.775414 23.2495C1.14113 23.726 1.63631 23.9954 2.1535 23.9992H5.17862C5.553 24.0118 5.92195 23.8806 6.23953 23.622C6.55711 23.3633 6.80929 22.9887 6.96466 22.5447C7.03859 22.362 7.14939 22.2091 7.28512 22.1024C7.42086 21.9957 7.57637 21.9393 7.7349 21.9393C7.89342 21.9393 8.04893 21.9957 8.18467 22.1024C8.3204 22.2091 8.43121 22.362 8.50513 22.5447C8.6605 22.9887 8.91268 23.3633 9.23026 23.622C9.54784 23.8806 9.91679 24.0118 10.2912 23.9992H22.2465C22.7637 23.9954 23.2589 23.726 23.6246 23.2495C23.9903 22.773 24.1971 22.1278 24.2 21.4539V2.54611C24.1971 1.87223 23.9903 1.22705 23.6246 0.750542C23.2589 0.274034 22.7637 0.00464578 22.2465 0.00082771Z" fill="#59413F"/>
<path d="M7.73443 8.10194C7.51238 8.10194 7.29944 7.98702 7.14243 7.78245C6.98542 7.57787 6.89722 7.30042 6.89722 7.01111V5.35304C6.89722 5.06373 6.98542 4.78628 7.14243 4.58171C7.29944 4.37713 7.51238 4.26221 7.73443 4.26221C7.95647 4.26221 8.16941 4.37713 8.32642 4.58171C8.48343 4.78628 8.57163 5.06373 8.57163 5.35304V7.01111C8.57163 7.30042 8.48343 7.57787 8.32642 7.78245C8.16941 7.98702 7.95647 8.10194 7.73443 8.10194Z" fill="white"/>
<path d="M7.73443 19.7374C7.51238 19.7374 7.29944 19.6225 7.14243 19.4179C6.98542 19.2134 6.89722 18.9359 6.89722 18.6466V16.9885C6.89722 16.6992 6.98542 16.4218 7.14243 16.2172C7.29944 16.0126 7.51238 15.8977 7.73443 15.8977C7.95647 15.8977 8.16941 16.0126 8.32642 16.2172C8.48343 16.4218 8.57163 16.6992 8.57163 16.9885V18.6466C8.57163 18.9359 8.48343 19.2134 8.32642 19.4179C8.16941 19.6225 7.95647 19.7374 7.73443 19.7374Z" fill="white"/>
<path d="M7.73443 13.9198C7.51238 13.9198 7.29944 13.8049 7.14243 13.6003C6.98542 13.3957 6.89722 13.1183 6.89722 12.829V11.1709C6.89722 10.8816 6.98542 10.6041 7.14243 10.3996C7.29944 10.195 7.51238 10.0801 7.73443 10.0801C7.95647 10.0801 8.16941 10.195 8.32642 10.3996C8.48343 10.6041 8.57163 10.8816 8.57163 11.1709V12.829C8.57163 13.1183 8.48343 13.3957 8.32642 13.6003C8.16941 13.8049 7.95647 13.9198 7.73443 13.9198Z" fill="white"/>
</svg>
