<svg width="19" height="18" viewBox="0 0 19 18" fill="none" xmlns="http://www.w3.org/2000/svg">
<path d="M16.1832 14.6511H14.6406C14.436 14.6511 14.2398 14.5849 14.0952 14.4672C13.9505 14.3494 13.8693 14.1897 13.8693 14.0232C13.8693 13.8566 13.9505 13.6969 14.0952 13.5792C14.2398 13.4614 14.436 13.3953 14.6406 13.3953H16.1832C16.3877 13.3951 16.5837 13.3289 16.7283 13.2112C16.8729 13.0934 16.9543 12.9338 16.9545 12.7674V1.88371C16.9543 1.71724 16.8729 1.55763 16.7283 1.43992C16.5837 1.3222 16.3877 1.25599 16.1832 1.25581H2.81391C2.60942 1.25599 2.41337 1.3222 2.26877 1.43992C2.12417 1.55763 2.04283 1.71724 2.04261 1.88371V12.7674C2.04283 12.9338 2.12417 13.0934 2.26877 13.2112C2.41337 13.3289 2.60942 13.3951 2.81391 13.3953H12.0696C12.2741 13.3953 12.4703 13.4614 12.615 13.5792C12.7596 13.6969 12.8409 13.8566 12.8409 14.0232C12.8409 14.1897 12.7596 14.3494 12.615 14.4672C12.4703 14.5849 12.2741 14.6511 12.0696 14.6511H2.81391C2.20043 14.6505 1.61227 14.4519 1.17847 14.0987C0.744671 13.7456 0.50067 13.2668 0.5 12.7674V1.88371C0.50067 1.38429 0.744671 0.905474 1.17847 0.552328C1.61227 0.199182 2.20043 0.000545143 2.81391 0H16.1832C16.7967 0.000545143 17.3848 0.199182 17.8186 0.552328C18.2524 0.905474 18.4964 1.38429 18.4971 1.88371V12.7674C18.4964 13.2668 18.2524 13.7456 17.8186 14.0987C17.3848 14.4519 16.7967 14.6505 16.1832 14.6511Z" fill="#9C1D21"/>
<path d="M1.27106 18.0001C1.12782 18 0.987418 17.9675 0.865594 17.9062C0.74377 17.8448 0.645334 17.7571 0.581317 17.6528C0.517299 17.5485 0.490229 17.4317 0.50314 17.3156C0.516051 17.1994 0.568433 17.0885 0.654416 16.9952L3.73963 13.6464C3.86242 13.5132 4.04521 13.4251 4.24777 13.4016C4.45034 13.378 4.65609 13.421 4.81977 13.5209C4.98344 13.6209 5.09164 13.7697 5.12055 13.9346C5.14946 14.0995 5.09672 14.267 4.97393 14.4002L1.88871 17.7491C1.81682 17.8271 1.72356 17.8904 1.61634 17.934C1.50912 17.9776 1.39089 18.0002 1.27106 18.0001Z" fill="#9C1D21"/>
<path d="M17.7289 18.0001C17.6091 18.0002 17.4909 17.9776 17.3837 17.934C17.2764 17.8904 17.1832 17.8271 17.1113 17.7491L14.0261 14.4002C13.9653 14.3343 13.921 14.2592 13.8959 14.1793C13.8707 14.0994 13.8651 14.0162 13.8794 13.9346C13.8938 13.8529 13.9277 13.7744 13.9793 13.7034C14.0309 13.6324 14.0992 13.5704 14.1802 13.5209C14.2613 13.4714 14.3535 13.4354 14.4516 13.4149C14.5498 13.3945 14.6519 13.3899 14.7522 13.4016C14.8525 13.4132 14.949 13.4408 15.0362 13.4829C15.1234 13.5249 15.1996 13.5804 15.2604 13.6464L18.3456 16.9952C18.4316 17.0885 18.4839 17.1994 18.4969 17.3156C18.5098 17.4317 18.4827 17.5485 18.4187 17.6528C18.3547 17.7571 18.2562 17.8448 18.1344 17.9062C18.0126 17.9675 17.8722 18 17.7289 18.0001Z" fill="#9C1D21"/>
<path d="M16.1835 16.744H2.81427C2.60971 16.744 2.41353 16.6778 2.26888 16.5601C2.12423 16.4423 2.04297 16.2826 2.04297 16.1161C2.04297 15.9495 2.12423 15.7898 2.26888 15.6721C2.41353 15.5543 2.60971 15.4882 2.81427 15.4882H16.1835C16.3881 15.4882 16.5843 15.5543 16.7289 15.6721C16.8736 15.7898 16.9549 15.9495 16.9549 16.1161C16.9549 16.2826 16.8736 16.4423 16.7289 16.5601C16.5843 16.6778 16.3881 16.744 16.1835 16.744Z" fill="#9C1D21"/>
<path d="M14.6414 9.62783H4.35736C4.15282 9.62779 3.95667 9.56162 3.81203 9.44387C3.66739 9.32613 3.58611 9.16644 3.58606 8.99993V3.1395C3.58611 2.97298 3.66739 2.8133 3.81203 2.69555C3.95667 2.57781 4.15282 2.51164 4.35736 2.5116H14.6414C14.846 2.51164 15.0421 2.57781 15.1868 2.69555C15.3314 2.8133 15.4127 2.97298 15.4127 3.1395V8.99993C15.4127 9.16644 15.3314 9.32613 15.1868 9.44387C15.0421 9.56162 14.846 9.62779 14.6414 9.62783ZM5.12867 8.37202H13.8701V3.7674H5.12867V8.37202Z" fill="#9C1D21"/>
<path d="M5.38695 12.558C6.09691 12.558 6.67245 12.0894 6.67245 11.5115C6.67245 10.9335 6.09691 10.465 5.38695 10.465C4.67698 10.465 4.10144 10.9335 4.10144 11.5115C4.10144 12.0894 4.67698 12.558 5.38695 12.558Z" fill="#9C1D21"/>
<path d="M13.6108 12.558C14.3208 12.558 14.8963 12.0894 14.8963 11.5115C14.8963 10.9335 14.3208 10.465 13.6108 10.465C12.9009 10.465 12.3253 10.9335 12.3253 11.5115C12.3253 12.0894 12.9009 12.558 13.6108 12.558Z" fill="#9C1D21"/>
</svg>
