<svg width="20" height="23" viewBox="0 0 20 23" fill="none" xmlns="http://www.w3.org/2000/svg">
<path d="M17.4652 18.2945H15.8358C15.6197 18.2945 15.4125 18.2119 15.2597 18.0648C15.1069 17.9178 15.0211 17.7184 15.0211 17.5104C15.0211 17.3025 15.1069 17.1031 15.2597 16.956C15.4125 16.809 15.6197 16.7264 15.8358 16.7264H17.4652C17.6812 16.7261 17.8883 16.6435 18.041 16.4965C18.1937 16.3495 18.2797 16.1502 18.2799 15.9423V2.35215C18.2797 2.14427 18.1937 1.94498 18.041 1.79799C17.8883 1.65101 17.6812 1.56833 17.4652 1.5681H3.34354C3.12754 1.56833 2.92046 1.65101 2.76772 1.79799C2.61498 1.94498 2.52907 2.14427 2.52883 2.35215V15.9423C2.52907 16.1502 2.61498 16.3495 2.76772 16.4965C2.92046 16.6435 3.12754 16.7261 3.34354 16.7264H13.1201C13.3361 16.7264 13.5434 16.809 13.6962 16.956C13.8489 17.1031 13.9348 17.3025 13.9348 17.5104C13.9348 17.7184 13.8489 17.9178 13.6962 18.0648C13.5434 18.2119 13.3361 18.2945 13.1201 18.2945H3.34354C2.69554 18.2938 2.07427 18.0458 1.61606 17.6048C1.15785 17.1638 0.900121 16.5659 0.899414 15.9423V2.35215C0.900121 1.72853 1.15785 1.13065 1.61606 0.68968C2.07427 0.248714 2.69554 0.000680708 3.34354 0H17.4652C18.1132 0.000680708 18.7345 0.248714 19.1927 0.68968C19.6509 1.13065 19.9086 1.72853 19.9093 2.35215V15.9423C19.9086 16.5659 19.6509 17.1638 19.1927 17.6048C18.7345 18.0458 18.1132 18.2938 17.4652 18.2945Z" fill="#ACADBC"/>
<path d="M1.71386 22.4762C1.56256 22.4762 1.41426 22.4356 1.28558 22.359C1.1569 22.2824 1.05293 22.1728 0.985307 22.0426C0.917687 21.9123 0.889093 21.7665 0.902731 21.6215C0.916368 21.4765 0.971698 21.338 1.06252 21.2215L4.32136 17.0399C4.45106 16.8736 4.64413 16.7636 4.8581 16.7342C5.07206 16.7048 5.28939 16.7584 5.46228 16.8832C5.63517 17.0081 5.74945 17.1939 5.77999 17.3998C5.81053 17.6057 5.75482 17.8148 5.62511 17.9812L2.36627 22.1628C2.29034 22.2603 2.19183 22.3394 2.07858 22.3938C1.96532 22.4482 1.84044 22.4764 1.71386 22.4762Z" fill="#ACADBC"/>
<path d="M19.0979 22.4762C18.9713 22.4764 18.8465 22.4482 18.7332 22.3938C18.62 22.3393 18.5214 22.2603 18.4455 22.1628L15.1867 17.9812C15.1224 17.8988 15.0757 17.8051 15.0491 17.7053C15.0226 17.6056 15.0167 17.5017 15.0318 17.3998C15.0469 17.2978 15.0828 17.1997 15.1373 17.1111C15.1918 17.0225 15.2639 16.945 15.3495 16.8832C15.4351 16.8214 15.5325 16.7765 15.6362 16.7509C15.7399 16.7253 15.8477 16.7196 15.9537 16.7342C16.0596 16.7487 16.1616 16.7832 16.2537 16.8357C16.3457 16.8882 16.4262 16.9576 16.4904 17.0399L19.7493 21.2215C19.8401 21.338 19.8954 21.4765 19.9091 21.6215C19.9227 21.7665 19.8941 21.9123 19.8265 22.0426C19.7589 22.1728 19.6549 22.2824 19.5262 22.359C19.3975 22.4356 19.2492 22.4762 19.0979 22.4762Z" fill="#ACADBC"/>
<path d="M17.4656 20.9079H3.34395C3.12787 20.9079 2.92065 20.8253 2.76786 20.6783C2.61507 20.5313 2.52924 20.3318 2.52924 20.1239C2.52924 19.916 2.61507 19.7165 2.76786 19.5695C2.92065 19.4224 3.12787 19.3398 3.34395 19.3398H17.4656C17.6817 19.3398 17.8889 19.4224 18.0417 19.5695C18.1945 19.7165 18.2803 19.916 18.2803 20.1239C18.2803 20.3318 18.1945 20.5313 18.0417 20.6783C17.8889 20.8253 17.6817 20.9079 17.4656 20.9079Z" fill="#ACADBC"/>
<path d="M15.8366 12.0221H4.97383C4.75777 12.0221 4.55058 11.9394 4.39781 11.7924C4.24503 11.6454 4.15918 11.446 4.15912 11.2381V3.92028C4.15918 3.71235 4.24503 3.51296 4.39781 3.36593C4.55058 3.21891 4.75777 3.13629 4.97383 3.13623H15.8366C16.0527 3.13629 16.2599 3.21891 16.4127 3.36593C16.5654 3.51296 16.6513 3.71235 16.6513 3.92028V11.2381C16.6513 11.446 16.5654 11.6454 16.4127 11.7924C16.2599 11.9394 16.0527 12.0221 15.8366 12.0221ZM5.78854 10.454H15.0219V4.70433H5.78854V10.454Z" fill="#ACADBC"/>
<path d="M6.0614 15.6809C6.81132 15.6809 7.41925 15.0958 7.41925 14.3741C7.41925 13.6524 6.81132 13.0674 6.0614 13.0674C5.31148 13.0674 4.70355 13.6524 4.70355 14.3741C4.70355 15.0958 5.31148 15.6809 6.0614 15.6809Z" fill="#ACADBC"/>
<path d="M14.7481 15.6809C15.498 15.6809 16.106 15.0958 16.106 14.3741C16.106 13.6524 15.498 13.0674 14.7481 13.0674C13.9982 13.0674 13.3903 13.6524 13.3903 14.3741C13.3903 15.0958 13.9982 15.6809 14.7481 15.6809Z" fill="#ACADBC"/>
</svg>
