<svg width="24" height="28" viewBox="0 0 24 28" fill="none" xmlns="http://www.w3.org/2000/svg">
<path d="M20.4664 22.7906H18.5428C18.2877 22.7906 18.043 22.6876 17.8626 22.5045C17.6823 22.3213 17.5809 22.0729 17.5809 21.8138C17.5809 21.5548 17.6823 21.3063 17.8626 21.1232C18.043 20.94 18.2877 20.8371 18.5428 20.8371H20.4664C20.7215 20.8368 20.9659 20.7338 21.1463 20.5507C21.3266 20.3676 21.428 20.1193 21.4283 19.8603V2.93021C21.428 2.67125 21.3266 2.42298 21.1463 2.23987C20.9659 2.05676 20.7215 1.95376 20.4664 1.95348H3.79457C3.53957 1.95376 3.29508 2.05676 3.11476 2.23987C2.93444 2.42298 2.83302 2.67125 2.83274 2.93021V19.8603C2.83302 20.1193 2.93444 20.3676 3.11476 20.5507C3.29508 20.7338 3.53957 20.8368 3.79457 20.8371H15.3366C15.5917 20.8371 15.8364 20.94 16.0168 21.1232C16.1971 21.3063 16.2985 21.5548 16.2985 21.8138C16.2985 22.0729 16.1971 22.3213 16.0168 22.5045C15.8364 22.6876 15.5917 22.7906 15.3366 22.7906H3.79457C3.02954 22.7897 2.29609 22.4807 1.75513 21.9314C1.21417 21.382 0.909893 20.6372 0.909058 19.8603V2.93021C0.909893 2.15333 1.21417 1.40851 1.75513 0.859176C2.29609 0.309838 3.02954 0.000848 3.79457 0H20.4664C21.2315 0.000848 21.9649 0.309838 22.5059 0.859176C23.0469 1.40851 23.3511 2.15333 23.352 2.93021V19.8603C23.3511 20.6372 23.0469 21.382 22.5059 21.9314C21.9649 22.4807 21.2315 22.7897 20.4664 22.7906Z" fill="#F4F4F4"/>
<path d="M1.87059 27.9999C1.69196 27.9999 1.51688 27.9493 1.36496 27.8539C1.21305 27.7585 1.09029 27.622 1.01046 27.4597C0.93063 27.2974 0.896873 27.1158 0.912973 26.9351C0.929073 26.7545 0.994395 26.582 1.10162 26.4369L4.94897 21.2276C5.1021 21.0203 5.33004 20.8833 5.58264 20.8467C5.83524 20.8101 6.09182 20.8769 6.29593 21.0324C6.50004 21.1879 6.63496 21.4194 6.67102 21.6759C6.70707 21.9324 6.6413 22.1929 6.48817 22.4002L2.64082 27.6095C2.55117 27.7309 2.43487 27.8294 2.30117 27.8972C2.16746 27.965 2.02003 28.0001 1.87059 27.9999Z" fill="#F4F4F4"/>
<path d="M22.3941 27.9999C22.2446 28.0001 22.0972 27.965 21.9635 27.8972C21.8298 27.8294 21.7135 27.7309 21.6238 27.6095L17.7765 22.4002C17.7007 22.2976 17.6455 22.1808 17.6141 22.0565C17.5827 21.9322 17.5758 21.8029 17.5936 21.6759C17.6115 21.5489 17.6538 21.4267 17.7182 21.3163C17.7825 21.2058 17.8677 21.1094 17.9687 21.0324C18.0698 20.9554 18.1848 20.8994 18.3072 20.8675C18.4296 20.8357 18.5569 20.8286 18.682 20.8467C18.8071 20.8648 18.9274 20.9078 19.0361 20.9732C19.1449 21.0385 19.2399 21.125 19.3157 21.2276L23.163 26.4369C23.2703 26.582 23.3356 26.7545 23.3517 26.9351C23.3678 27.1158 23.334 27.2974 23.2542 27.4597C23.1744 27.622 23.0516 27.7585 22.8997 27.8539C22.7478 27.9493 22.5727 27.9999 22.3941 27.9999Z" fill="#F4F4F4"/>
<path d="M20.467 26.0462H3.79509C3.54 26.0462 3.29535 25.9433 3.11497 25.7602C2.93459 25.577 2.83325 25.3286 2.83325 25.0695C2.83325 24.8105 2.93459 24.562 3.11497 24.3789C3.29535 24.1957 3.54 24.0928 3.79509 24.0928H20.467C20.7221 24.0928 20.9667 24.1957 21.1471 24.3789C21.3275 24.562 21.4288 24.8105 21.4288 25.0695C21.4288 25.3286 21.3275 25.577 21.1471 25.7602C20.9667 25.9433 20.7221 26.0462 20.467 26.0462Z" fill="#F4F4F4"/>
<path d="M18.5438 14.9767H5.71929C5.46421 14.9766 5.2196 14.8737 5.03924 14.6905C4.85887 14.5074 4.75751 14.259 4.75745 13.9999V4.88372C4.75751 4.62469 4.85887 4.3763 5.03924 4.19314C5.2196 4.00998 5.46421 3.90705 5.71929 3.90698H18.5438C18.7989 3.90705 19.0435 4.00998 19.2239 4.19314C19.4042 4.3763 19.5056 4.62469 19.5056 4.88372V13.9999C19.5056 14.259 19.4042 14.5074 19.2239 14.6905C19.0435 14.8737 18.7989 14.9766 18.5438 14.9767ZM6.68112 13.0232H17.582V5.86046H6.68112V13.0232Z" fill="#F4F4F4"/>
<path d="M7.00327 19.5346C7.88862 19.5346 8.60634 18.8058 8.60634 17.9067C8.60634 17.0076 7.88862 16.2788 7.00327 16.2788C6.11792 16.2788 5.40021 17.0076 5.40021 17.9067C5.40021 18.8058 6.11792 19.5346 7.00327 19.5346Z" fill="#F4F4F4"/>
<path d="M17.2587 19.5346C18.1441 19.5346 18.8618 18.8058 18.8618 17.9067C18.8618 17.0076 18.1441 16.2788 17.2587 16.2788C16.3734 16.2788 15.6556 17.0076 15.6556 17.9067C15.6556 18.8058 16.3734 19.5346 17.2587 19.5346Z" fill="#F4F4F4"/>
</svg>
