<svg width="24" height="28" viewBox="0 0 24 28" fill="none" xmlns="http://www.w3.org/2000/svg">
<path d="M7.04349 17.4931H17.2465C17.5171 17.4931 17.7766 17.4009 17.9679 17.2369C18.1593 17.0729 18.2668 16.8504 18.2668 16.6184V10.4958C18.2668 10.2638 18.1593 10.0413 17.9679 9.87728C17.7766 9.71325 17.5171 9.62109 17.2465 9.62109H7.04349C6.77289 9.62109 6.51337 9.71325 6.32203 9.87728C6.13069 10.0413 6.02319 10.2638 6.02319 10.4958V16.6184C6.02319 16.8504 6.13069 17.0729 6.32203 17.2369C6.51337 17.4009 6.77289 17.4931 7.04349 17.4931ZM8.06379 11.3704H16.2262V15.7437H8.06379V11.3704Z" fill="#F4F4F4"/>
<path d="M17.2447 20.1172H16.2244C15.9538 20.1172 15.6943 20.2093 15.5029 20.3734C15.3116 20.5374 15.2041 20.7599 15.2041 20.9919C15.2041 21.2238 15.3116 21.4463 15.5029 21.6103C15.6943 21.7744 15.9538 21.8665 16.2244 21.8665H17.2447C17.5153 21.8665 17.7748 21.7744 17.9662 21.6103C18.1575 21.4463 18.265 21.2238 18.265 20.9919C18.265 20.7599 18.1575 20.5374 17.9662 20.3734C17.7748 20.2093 17.5153 20.1172 17.2447 20.1172Z" fill="#F4F4F4"/>
<path d="M7.04349 21.8665H8.06379C8.33439 21.8665 8.5939 21.7744 8.78525 21.6103C8.97659 21.4463 9.08408 21.2238 9.08408 20.9919C9.08408 20.7599 8.97659 20.5374 8.78525 20.3734C8.5939 20.2093 8.33439 20.1172 8.06379 20.1172H7.04349C6.77289 20.1172 6.51337 20.2093 6.32203 20.3734C6.13069 20.5374 6.02319 20.7599 6.02319 20.9919C6.02319 21.2238 6.13069 21.4463 6.32203 21.6103C6.51337 21.7744 6.77289 21.8665 7.04349 21.8665Z" fill="#F4F4F4"/>
<path d="M23.0692 26.4962L21.1235 24.8273C21.5024 24.585 21.8104 24.2703 22.0229 23.9082C22.2354 23.5461 22.3466 23.1466 22.3478 22.7413V10.496C22.3462 9.33652 21.8082 8.22495 20.8518 7.4051C19.8955 6.58524 18.5988 6.12404 17.2463 6.12265H15.7332L17.8269 1.93913C18.1015 2.04233 18.3518 2.18756 18.5656 2.36772C18.758 2.52704 19.0157 2.6152 19.2833 2.61321C19.5508 2.61122 19.8067 2.51923 19.9959 2.35706C20.185 2.19489 20.2923 1.97551 20.2947 1.74618C20.297 1.51685 20.1941 1.2959 20.0083 1.13094C19.1548 0.418447 18.0151 0.0136741 16.8239 0L7.46578 0C6.27443 0.0129604 5.13443 0.417839 4.28143 1.13094C4.09558 1.2959 3.99274 1.51685 3.99506 1.74618C3.99739 1.97551 4.10469 2.19489 4.29386 2.35706C4.48303 2.51923 4.73894 2.61122 5.00645 2.61321C5.27397 2.6152 5.5317 2.52704 5.72413 2.36772C5.93777 2.18738 6.18813 2.04212 6.46283 1.93913L8.55647 6.12265H7.04337C5.69087 6.12404 4.39423 6.58524 3.43787 7.4051C2.48151 8.22495 1.94351 9.33652 1.94189 10.496V22.7413C1.94308 23.1466 2.05433 23.5461 2.26684 23.9082C2.47935 24.2703 2.78728 24.585 3.16625 24.8273L1.22054 26.4962C1.12309 26.5769 1.04537 26.6734 0.991892 26.7801C0.93842 26.8868 0.910273 27.0016 0.909096 27.1177C0.907919 27.2339 0.933734 27.349 0.985035 27.4565C1.03634 27.564 1.1121 27.6617 1.2079 27.7438C1.30369 27.8259 1.41761 27.8909 1.543 27.9349C1.66839 27.9788 1.80275 28.001 1.93822 28C2.07369 27.999 2.20758 27.9748 2.33206 27.929C2.45654 27.8831 2.56912 27.8165 2.66324 27.733L5.42518 25.3653H18.8645L21.6265 27.733C21.8189 27.8923 22.0766 27.9805 22.3442 27.9785C22.6117 27.9765 22.8676 27.8845 23.0567 27.7223C23.2459 27.5602 23.3532 27.3408 23.3555 27.1114C23.3579 26.8821 23.255 26.6612 23.0692 26.4962ZM8.5881 1.74933H15.7016L13.5131 6.12265H10.7766L8.5881 1.74933ZM3.98248 10.496C3.98248 9.80004 4.30497 9.13262 4.879 8.64053C5.45303 8.14843 6.23158 7.87198 7.04337 7.87198H17.2463C18.0581 7.87198 18.8367 8.14843 19.4107 8.64053C19.9847 9.13262 20.3072 9.80004 20.3072 10.496V22.7413C20.3072 22.9732 20.1997 23.1957 20.0084 23.3597C19.8171 23.5238 19.5575 23.6159 19.2869 23.6159H5.00278C4.73218 23.6159 4.47267 23.5238 4.28132 23.3597C4.08998 23.1957 3.98248 22.9732 3.98248 22.7413V10.496Z" fill="#F4F4F4"/>
</svg>
