<svg width="19" height="18" viewBox="0 0 19 18" fill="none" xmlns="http://www.w3.org/2000/svg">
<path d="M5.41926 11.2455H13.6011C13.8181 11.2455 14.0262 11.1863 14.1796 11.0808C14.3331 10.9754 14.4193 10.8323 14.4193 10.6832V6.74722C14.4193 6.59809 14.3331 6.45507 14.1796 6.34963C14.0262 6.24418 13.8181 6.18494 13.6011 6.18494H5.41926C5.20226 6.18494 4.99415 6.24418 4.84071 6.34963C4.68728 6.45507 4.60107 6.59809 4.60107 6.74722V10.6832C4.60107 10.8323 4.68728 10.9754 4.84071 11.0808C4.99415 11.1863 5.20226 11.2455 5.41926 11.2455ZM6.23744 7.3095H12.7829V10.1209H6.23744V7.3095Z" fill="#9C1D21"/>
<path d="M13.5996 12.9325H12.7814C12.5644 12.9325 12.3563 12.9917 12.2029 13.0972C12.0495 13.2026 11.9633 13.3457 11.9633 13.4948C11.9633 13.6439 12.0495 13.7869 12.2029 13.8924C12.3563 13.9978 12.5644 14.0571 12.7814 14.0571H13.5996C13.8166 14.0571 14.0247 13.9978 14.1782 13.8924C14.3316 13.7869 14.4178 13.6439 14.4178 13.4948C14.4178 13.3457 14.3316 13.2026 14.1782 13.0972C14.0247 12.9917 13.8166 12.9325 13.5996 12.9325Z" fill="#9C1D21"/>
<path d="M5.41926 14.0571H6.23744C6.45443 14.0571 6.66254 13.9978 6.81598 13.8924C6.96942 13.7869 7.05562 13.6439 7.05562 13.4948C7.05562 13.3457 6.96942 13.2026 6.81598 13.0972C6.66254 12.9917 6.45443 12.9325 6.23744 12.9325H5.41926C5.20226 12.9325 4.99415 12.9917 4.84071 13.0972C4.68728 13.2026 4.60107 13.3457 4.60107 13.4948C4.60107 13.6439 4.68728 13.7869 4.84071 13.8924C4.99415 13.9978 5.20226 14.0571 5.41926 14.0571Z" fill="#9C1D21"/>
<path d="M18.2703 17.0333L16.7101 15.9604C17.0139 15.8046 17.2609 15.6023 17.4313 15.3696C17.6017 15.1368 17.6909 14.88 17.6919 14.6194V6.74741C17.6906 6.00205 17.2592 5.28747 16.4922 4.76042C15.7253 4.23337 14.6855 3.93688 13.601 3.93599H12.3876L14.0665 1.24658C14.2867 1.31293 14.4874 1.40629 14.6589 1.5221C14.8132 1.62453 15.0199 1.6812 15.2344 1.67992C15.4489 1.67864 15.6541 1.61951 15.8058 1.51525C15.9575 1.411 16.0436 1.26997 16.0454 1.12254C16.0473 0.975116 15.9648 0.833081 15.8158 0.727033C15.1314 0.269002 14.2175 0.0087905 13.2622 0L5.75787 0C4.80252 0.00833168 3.88835 0.268611 3.20433 0.727033C3.05529 0.833081 2.97282 0.975116 2.97468 1.12254C2.97655 1.26997 3.0626 1.411 3.21429 1.51525C3.36599 1.61951 3.5712 1.67864 3.78573 1.67992C4.00025 1.6812 4.20692 1.62453 4.36124 1.5221C4.53255 1.40617 4.73332 1.31279 4.9536 1.24658L6.63251 3.93599H5.41914C4.33457 3.93688 3.29478 4.23337 2.52787 4.76042C1.76096 5.28747 1.32953 6.00205 1.32824 6.74741V14.6194C1.32919 14.88 1.4184 15.1368 1.58882 15.3696C1.75923 15.6023 2.00616 15.8046 2.31005 15.9604L0.749781 17.0333C0.671637 17.0851 0.609306 17.1472 0.566426 17.2158C0.523546 17.2844 0.500975 17.3582 0.500031 17.4328C0.499087 17.5075 0.519788 17.5815 0.560927 17.6506C0.602066 17.7197 0.662818 17.7825 0.73964 17.8353C0.816461 17.8881 0.907813 17.9299 1.00836 17.9581C1.10892 17.9864 1.21665 18.0006 1.32529 18C1.43393 17.9993 1.54129 17.9838 1.64111 17.9544C1.74093 17.9249 1.83122 17.882 1.90669 17.8283L4.12151 16.3062H14.8986L17.1134 17.8283C17.2677 17.9308 17.4744 17.9874 17.6889 17.9862C17.9035 17.9849 18.1087 17.9257 18.2604 17.8215C18.4121 17.7172 18.4981 17.5762 18.5 17.4288C18.5018 17.2814 18.4194 17.1393 18.2703 17.0333ZM6.65787 1.12457H12.3622L10.6072 3.93599H8.41287L6.65787 1.12457ZM2.9646 6.74741C2.9646 6.30003 3.2232 5.87097 3.68352 5.55462C4.14384 5.23828 4.76816 5.06056 5.41914 5.06056H13.601C14.2519 5.06056 14.8763 5.23828 15.3366 5.55462C15.7969 5.87097 16.0555 6.30003 16.0555 6.74741V14.6194C16.0555 14.7685 15.9693 14.9115 15.8159 15.017C15.6624 15.1224 15.4543 15.1817 15.2373 15.1817H3.78278C3.56579 15.1817 3.35768 15.1224 3.20424 15.017C3.0508 14.9115 2.9646 14.7685 2.9646 14.6194V6.74741Z" fill="#9C1D21"/>
</svg>
