<svg width="25" height="24" viewBox="0 0 25 24" fill="none" xmlns="http://www.w3.org/2000/svg">
<path d="M24.8 19.2V21.6C24.8 22.9238 23.8383 24 22.6572 24H4.22862C2.33776 24 0.800049 22.2778 0.800049 20.16C0.800049 20.16 0.800049 3.8544 0.800049 3.84C0.800049 1.72224 2.33776 0 4.22862 0H20.0858C20.7963 0 21.3715 0.64512 21.3715 1.44C21.3715 2.23488 20.7963 2.88 20.0858 2.88H4.22862C3.75633 2.88 3.37148 3.31008 3.37148 3.84C3.37148 4.36992 3.75633 4.8 4.22862 4.8H22.6572C23.8383 4.8 24.8 5.87616 24.8 7.2V9.6H20.5143C18.1512 9.6 16.2286 11.7533 16.2286 14.4C16.2286 17.0467 18.1512 19.2 20.5143 19.2H24.8Z" fill="#9C1D21"/>
<path d="M24.8001 11.52V17.28H20.5144C19.0941 17.28 17.9429 15.9907 17.9429 14.4C17.9429 12.8093 19.0941 11.52 20.5144 11.52H24.8001Z" fill="#9C1D21"/>
</svg>
